<svg preserveAspectRatio="xMidYMid meet" viewBox="0 0 1500.000000 265.000000" height="265.000000pt" width="1500.000000pt" xmlns="http://www.w3.org/2000/svg" version="1.0">

<g stroke="none" fill="#000000" transform="translate(0.000000,265.000000) scale(0.100000,-0.100000)">
<path d="M5126 2504 c-14 -14 -16 -129 -16 -1122 0 -986 2 -1110 16 -1130 15
-21 21 -22 185 -22 98 0 178 4 190 10 19 10 19 29 19 726 0 447 4 714 9 712 6
-1 308 -331 672 -733 364 -401 667 -733 673 -737 6 -4 34 -8 63 -8 91 0 83
-113 83 1144 0 1065 -1 1114 -18 1129 -16 14 -45 17 -190 17 -159 0 -174 -2
-192 -20 -20 -20 -20 -33 -20 -700 l0 -680 -671 715 -671 715 -58 0 c-40 0
-64 -5 -74 -16z"></path>
<path d="M7927 2501 c-161 -35 -300 -119 -381 -230 -143 -195 -165 -430 -60
-645 80 -165 267 -312 529 -416 290 -115 419 -235 419 -390 0 -169 -157 -278
-361 -249 -129 18 -233 62 -357 151 -86 61 -120 70 -154 41 -23 -22 -138 -219
-147 -254 -8 -31 4 -45 89 -109 193 -144 414 -208 689 -197 163 6 225 20 347
80 68 33 102 58 170 127 157 157 214 330 177 537 -29 161 -115 295 -257 402
-106 80 -173 116 -378 205 -298 128 -395 211 -409 351 -14 130 80 230 234 251
109 14 270 -36 425 -132 131 -81 139 -78 246 83 112 170 107 181 -127 298
-164 82 -261 106 -451 111 -126 3 -171 0 -243 -15z"></path>
<path d="M11839 2478 c-70 -138 -1009 -2183 -1009 -2198 0 -45 21 -50 205 -50
166 0 175 1 199 23 13 12 60 103 105 202 l80 180 488 2 488 3 80 -181 c44 -99
91 -192 104 -205 23 -24 27 -24 200 -24 190 0 201 3 201 51 0 25 -969 2161
-1006 2217 -12 18 -24 22 -64 22 -48 0 -50 -1 -71 -42z m234 -1123 c87 -191
156 -349 154 -351 -2 -3 -148 -3 -324 -2 l-320 3 156 352 c86 194 160 351 166
350 5 -2 81 -160 168 -352z"></path>
<path d="M16 2468 c-14 -20 -16 -142 -16 -1108 0 -966 2 -1088 16 -1108 l15
-22 442 0 c434 0 522 5 642 36 364 92 682 396 794 759 140 452 -22 952 -400
1235 -92 68 -226 138 -333 174 -151 50 -223 56 -703 56 l-442 0 -15 -22z m999
-397 c220 -72 386 -230 456 -435 129 -378 -19 -780 -346 -940 -126 -62 -163
-68 -447 -73 l-258 -5 0 742 0 742 263 -4 c239 -4 268 -6 332 -27z"></path>
<path d="M2368 2479 c-17 -9 -18 -73 -18 -1119 0 -1086 0 -1110 19 -1120 13
-6 250 -10 700 -10 604 0 681 2 695 16 13 13 16 43 16 172 0 86 -5 164 -10
172 -8 13 -79 16 -507 20 l-498 5 -3 282 -2 283 408 0 c353 0 411 2 430 16 21
15 22 21 22 179 0 135 -3 166 -16 179 -13 14 -66 16 -430 16 l-414 0 2 268 3
267 495 3 c451 2 496 4 508 19 8 12 12 64 12 173 0 139 -2 159 -18 173 -17 16
-80 17 -698 17 -442 -1 -685 -4 -696 -11z"></path>
<path d="M4190 2470 c-20 -20 -20 -33 -20 -1108 0 -968 2 -1090 16 -1110 15
-21 21 -22 194 -22 149 0 181 3 194 16 14 14 16 129 16 1114 0 985 -2 1100
-16 1114 -13 13 -45 16 -190 16 -161 0 -176 -2 -194 -20z"></path>
<path d="M9286 2474 c-14 -14 -16 -129 -16 -1114 0 -985 2 -1100 16 -1114 13
-13 44 -16 188 -16 122 0 177 4 189 13 15 11 17 50 19 407 l3 395 265 6 c300
6 341 13 475 82 61 31 102 63 171 132 76 76 97 104 136 185 61 126 73 180 73
330 0 102 -5 139 -24 200 -58 190 -191 345 -376 436 -142 70 -178 74 -675 74
-376 0 -430 -2 -444 -16z m906 -398 c66 -24 141 -95 174 -163 23 -46 28 -69
27 -132 0 -161 -87 -283 -234 -325 -45 -13 -96 -16 -265 -14 l-209 3 -3 315
c-1 173 0 321 3 328 8 22 444 12 507 -12z"></path>
<path d="M13326 2468 c-14 -20 -16 -142 -16 -1108 0 -966 2 -1088 16 -1108 15
-21 21 -22 193 -22 159 0 180 2 194 18 15 16 17 65 19 443 l3 424 177 3 178 2
222 -442 223 -443 204 -3 c142 -2 208 1 217 9 33 27 14 71 -206 480 -121 224
-220 412 -220 417 0 5 19 18 42 28 146 65 292 203 358 338 54 109 73 204 67
331 -12 260 -159 475 -402 591 -125 60 -168 64 -740 64 l-514 0 -15 -22z
m1049 -383 c69 -26 166 -123 188 -189 22 -63 22 -159 0 -222 -12 -35 -35 -67
-82 -115 -98 -98 -103 -99 -458 -99 l-293 0 0 318 c0 175 3 322 7 326 4 4 138
6 298 4 253 -4 296 -6 340 -23z"></path>
</g>
</svg>
